<mxfile host="65bd71144e">
    <diagram id="ZRUQyJm2jaMnfnZijTOC" name="ページ1">
        <mxGraphModel dx="161" dy="131" grid="1" gridSize="10" guides="1" tooltips="1" connect="1" arrows="1" fold="1" page="1" pageScale="1" pageWidth="827" pageHeight="1169" math="1" shadow="0">
            <root>
                <mxCell id="0"/>
                <mxCell id="1" parent="0"/>
                <mxCell id="3" style="edgeStyle=none;html=1;exitX=0.5;exitY=1;exitDx=0;exitDy=0;endArrow=oval;endFill=1;rounded=0;spacing=2;strokeWidth=2;" parent="1" source="2" edge="1">
                    <mxGeometry relative="1" as="geometry">
                        <mxPoint x="510" y="360" as="targetPoint"/>
                        <Array as="points">
                            <mxPoint x="410" y="360"/>
                        </Array>
                    </mxGeometry>
                </mxCell>
                <mxCell id="12" value="AI GND" style="edgeLabel;html=1;align=center;verticalAlign=middle;resizable=0;points=[];spacing=2;" parent="3" vertex="1" connectable="0">
                    <mxGeometry x="0.3469" y="3" relative="1" as="geometry">
                        <mxPoint y="-7" as="offset"/>
                    </mxGeometry>
                </mxCell>
                <mxCell id="4" style="edgeStyle=none;rounded=0;html=1;exitX=0;exitY=0.5;exitDx=0;exitDy=0;endArrow=oval;endFill=1;spacing=2;strokeWidth=2;" parent="1" source="2" edge="1">
                    <mxGeometry relative="1" as="geometry">
                        <mxPoint x="280" y="280.14285714285717" as="targetPoint"/>
                    </mxGeometry>
                </mxCell>
                <mxCell id="9" value="AI0" style="edgeLabel;html=1;align=center;verticalAlign=middle;resizable=0;points=[];spacing=2;" parent="4" vertex="1" connectable="0">
                    <mxGeometry x="-0.0373" y="-1" relative="1" as="geometry">
                        <mxPoint y="-9" as="offset"/>
                    </mxGeometry>
                </mxCell>
                <mxCell id="5" style="edgeStyle=none;rounded=0;html=1;exitX=0.5;exitY=0;exitDx=0;exitDy=0;endArrow=none;endFill=0;spacing=2;strokeWidth=2;" parent="1" source="2" edge="1">
                    <mxGeometry relative="1" as="geometry">
                        <mxPoint x="280" y="280" as="targetPoint"/>
                        <Array as="points">
                            <mxPoint x="410" y="210"/>
                            <mxPoint x="280" y="210"/>
                        </Array>
                    </mxGeometry>
                </mxCell>
                <mxCell id="8" value="AO0" style="edgeLabel;html=1;align=center;verticalAlign=middle;resizable=0;points=[];spacing=2;" parent="5" vertex="1" connectable="0">
                    <mxGeometry x="-0.2081" relative="1" as="geometry">
                        <mxPoint y="-10" as="offset"/>
                    </mxGeometry>
                </mxCell>
                <mxCell id="6" style="edgeStyle=none;rounded=0;html=1;exitX=1;exitY=0.5;exitDx=0;exitDy=0;endArrow=none;endFill=0;spacing=2;strokeWidth=2;" parent="1" source="2" edge="1">
                    <mxGeometry relative="1" as="geometry">
                        <mxPoint x="510" y="360" as="targetPoint"/>
                        <Array as="points">
                            <mxPoint x="510" y="280"/>
                        </Array>
                    </mxGeometry>
                </mxCell>
                <mxCell id="10" value="AO GND" style="edgeLabel;html=1;align=center;verticalAlign=middle;resizable=0;points=[];spacing=2;" parent="6" vertex="1" connectable="0">
                    <mxGeometry x="-0.7889" relative="1" as="geometry">
                        <mxPoint x="16" y="-10" as="offset"/>
                    </mxGeometry>
                </mxCell>
                <mxCell id="2" value="MyRIO" style="shape=hexagon;perimeter=hexagonPerimeter2;whiteSpace=wrap;html=1;fixedSize=1;spacing=2;strokeWidth=2;" parent="1" vertex="1">
                    <mxGeometry x="360" y="240" width="100" height="80" as="geometry"/>
                </mxCell>
            </root>
        </mxGraphModel>
    </diagram>
</mxfile>